<svg id="flower_partial" xmlns="http://www.w3.org/2000/svg" viewBox="0 0 160.2 237.53"><defs><style>.a,.f{fill:#bf3a18;}.a{opacity:0.18;}.b{fill:#28a437;}.c{fill:#df4a2c;}.d{fill:#95c752;}.e{fill:#e67345;}.g{fill:#199437;}.h{font-size:12px;fill:#1a1818;.i{letter-spacing:-0.01em;}.j{letter-spacing:-0.01em;}.k{letter-spacing:0em;}</style></defs><title>flower</title><ellipse class="a" cx="69.38" cy="224.52" rx="55.52" ry="13.01"/><path class="b" d="M88,110.31S74.9,84.58,45.9,80.6C45.9,80.6,55.49,102.59,88,110.31Z" transform="translate(-24.64 -6.98)"/><path class="b" d="M86.56,138.8l5.26.09a246.33,246.33,0,0,0-2.19-33.39C86.35,81.13,80,63.7,70.81,53.68l-3.87,3.56C87.29,79.38,86.57,138.21,86.56,138.8Z" transform="translate(-24.64 -6.98)"/><path class="c" d="M71.83,27.2S67.48,5.87,62.39,7s-6.83,9-6.83,9-4.29-7-9.07-3.52S44.65,22,44.65,22s-5.31-5.23-9.45-.8-.2,9.43-.2,9.43-6.74-4.9-9.62-.16C21.32,37.15,35.32,45.61,39.5,47s15.41,3,15.41,3l9.5-3.65Z" transform="translate(-24.64 -6.98)"/><path class="b" d="M62.64,45.18c1.3-6,7.32-17.85,8.75-21.86a.76.76,0,0,1,1.39-.09c1.82,3.6,2.85,9.09,6.72,15.09,6.31,9.79-5.25,21.87-7.65,23.94l-.23.2a1.87,1.87,0,0,1-.27.13c-3.81,1.14-17.46,6.61-23.45-2.31-3.8-5.66-10-8.65-12.82-12.22a1.63,1.63,0,0,1,1.43-2.63c5,.45,17.92.61,23.09,1.72A2.56,2.56,0,0,0,62.64,45.18Z" transform="translate(-24.64 -6.98)"/><path class="d" d="M103.69,127.28S130.81,81.8,173,85.14C173,85.14,143.33,126.45,103.69,127.28Z" transform="translate(-24.64 -6.98)"/><path class="b" d="M105.77,116.85s13.77-50.07.42-68C106.19,48.84,80.32,79.71,105.77,116.85Z" transform="translate(-24.64 -6.98)"/><path class="d" d="M104.94,118.73S91,95.78,79.69,92C79.69,92,74.27,108.4,104.94,118.73Z" transform="translate(-24.64 -6.98)"/><path class="d" d="M100.2,141.92l-4.83-1.31a234.36,234.36,0,0,1,10.8-29.95C115.58,89.26,126,75,137,68.26l2.6,4.28C115.18,87.41,100.35,141.38,100.2,141.92Z" transform="translate(-24.64 -6.98)"/><rect class="e" x="11.43" y="123.78" width="120.56" height="20.85"/><polygon class="e" points="125.82 144.63 17.6 144.63 29.8 224.08 113.62 224.08 125.82 144.63"/><polygon class="f" points="124.88 150.73 125.82 144.63 17.6 144.63 18.54 150.73 124.88 150.73"/><path class="c" d="M143.05,43.78s9.6-18.35,13.94-16,3.88,10,3.88,10,5.75-5.23,9.21-.83-.81,9.16-.81,9.16,6.23-3.38,8.85,1.76-2.3,8.68-2.3,8.68,7.45-2.71,8.84,2.39c1.95,7.17-13.08,11.22-17.26,11.36s-14.89-1.3-14.89-1.3l-7.72-5.84Z" transform="translate(-24.64 -6.98)"/><path class="d" d="M146.72,62.64c.38-5.79-2-18.25-2.24-22.29a.72.72,0,0,0-1.25-.45c-2.61,2.81-5,7.56-10.12,12-8.35,7.29-1,21.38.69,23.9l.16.24a1.78,1.78,0,0,0,.22.19c3.18,2,14.22,10.64,22,4.06,5-4.18,11.43-5.27,14.94-7.8a1.55,1.55,0,0,0-.61-2.78c-4.71-.91-16.54-4.16-21.56-4.51A2.43,2.43,0,0,1,146.72,62.64Z" transform="translate(-24.64 -6.98)"/><path class="g" d="M82.15,83.64S82.86,55.57,94.32,50C94.32,50,102.5,66.1,82.15,83.64Z" transform="translate(-24.64 -6.98)"/>

<text class="h plant_text" transform="translate(32.36 173.54)">
	
	<tspan class="i">{{currentPlant.plantName}}</tspan>
	<!-- <tspan x="5.5" y="0">o</tspan>
	<tspan class="j" x="12.08" y="0">r</tspan>
	<tspan x="15.89" y="0">em ipsum </tspan>
	<tspan x="0" y="14.4">dolor sit ame</tspan>
	<tspan class="k" x="65.12" y="14.4">t</tspan>
	<tspan x="69.06" y="14.4">, </tspan> -->
</text>
</svg>